<svg width="543" height="813" viewBox="0 0 543 813" fill="none" xmlns="http://www.w3.org/2000/svg">
<circle cx="347" cy="403" r="334" fill="#D0F6FF" fill-opacity="0.5"/>
<circle cx="101.545" cy="626" r="27.5" transform="rotate(-22.5259 101.545 626)" fill="#D0F6FF"/>
<circle cx="86.3804" cy="609.014" r="33" transform="rotate(-22.5259 86.3804 609.014)" stroke="#21B7E2" stroke-width="4"/>
<path d="M77.6966 627.167C68.7247 624.659 63.4839 615.354 65.991 606.382" stroke="#21B7E2" stroke-width="4" stroke-linecap="round"/>
<circle cx="32.9182" cy="632.811" r="13.5" transform="rotate(-22.5259 32.9182 632.811)" fill="#D0F6FF"/>
<circle cx="88.5277" cy="683.363" r="13.5" transform="rotate(-22.5259 88.5277 683.363)" fill="#D0F6FF"/>
<circle cx="223.641" cy="740.643" r="13.5" transform="rotate(-22.5259 223.641 740.643)" fill="#D0F6FF"/>
<circle cx="25.6627" cy="624.453" r="15" transform="rotate(-22.5259 25.6627 624.453)" stroke="#21B7E2" stroke-width="4"/>
<circle cx="61.0166" cy="666.626" r="10.5" transform="rotate(-22.5259 61.0166 666.626)" stroke="#21B7E2" stroke-width="4"/>
<path d="M29.1106 632.766C25.5395 634.247 21.6155 632.966 20.346 629.905" stroke="#21B7E2" stroke-width="4" stroke-linecap="round"/>
<circle cx="143.324" cy="717.04" r="27.5" transform="rotate(150.274 143.324 717.04)" fill="#D0F6FF"/>
<circle cx="165.498" cy="724.992" r="33" transform="rotate(150.274 165.498 724.992)" stroke="#21B7E2" stroke-width="4"/>
<path d="M171.838 705.893C181.054 707.256 187.419 715.832 186.057 725.047" stroke="#21B7E2" stroke-width="4" stroke-linecap="round"/>
<circle cx="215.556" cy="694.681" r="13.5" transform="rotate(150.274 215.556 694.681)" fill="#D0F6FF"/>
<circle cx="154.049" cy="651.497" r="13.5" transform="rotate(150.274 154.049 651.497)" fill="#D0F6FF"/>
<circle cx="223.802" cy="702.064" r="15" transform="rotate(150.274 223.802 702.064)" stroke="#21B7E2" stroke-width="4"/>
<circle cx="183.441" cy="664.655" r="10.5" transform="rotate(150.274 183.441 664.655)" stroke="#21B7E2" stroke-width="4"/>
<circle cx="233.052" cy="750.054" r="10.5" transform="rotate(150.274 233.052 750.054)" stroke="#21B7E2" stroke-width="4"/>
<path d="M219.339 694.249C222.697 692.332 226.75 693.11 228.393 695.988" stroke="#21B7E2" stroke-width="4" stroke-linecap="round"/>
<circle cx="370.566" cy="110.79" r="27.5" transform="rotate(109.799 370.566 110.79)" fill="#D0F6FF"/>
<circle cx="392.595" cy="102.445" r="33" transform="rotate(109.799 392.595 102.445)" stroke="#21B7E2" stroke-width="4"/>
<path d="M385.021 83.8018C392.916 78.8566 403.324 81.2476 408.27 89.1423" stroke="#21B7E2" stroke-width="4" stroke-linecap="round"/>
<circle cx="410.999" cy="46.8949" r="13.5" transform="rotate(109.799 410.999 46.8949)" fill="#D0F6FF"/>
<circle cx="336.179" cy="53.9703" r="13.5" transform="rotate(109.799 336.179 53.9703)" fill="#D0F6FF"/>
<circle cx="422.064" cy="47.1584" r="15" transform="rotate(109.799 422.064 47.1584)" stroke="#21B7E2" stroke-width="4"/>
<circle cx="367.078" cy="44.9001" r="10.5" transform="rotate(109.799 367.078 44.9001)" stroke="#21B7E2" stroke-width="4"/>
<circle cx="460.251" cy="77.6601" r="10.5" transform="rotate(109.799 460.251 77.6601)" stroke="#21B7E2" stroke-width="4"/>
<path d="M413.596 44.11C414.905 40.4726 418.494 38.4337 421.612 39.5562" stroke="#21B7E2" stroke-width="4" stroke-linecap="round"/>
</svg>
